<svg width="26" height="25" viewBox="0 0 26 25" fill="none" xmlns="http://www.w3.org/2000/svg">
<g filter="url(#filter0_d_659_85)">
<path fill-rule="evenodd" clip-rule="evenodd" d="M14.0775 3.57733C14.4029 3.25189 14.9306 3.25189 15.256 3.57733L21.0893 9.41066C21.4148 9.7361 21.4148 10.2637 21.0893 10.5892L15.256 16.4225C14.9306 16.7479 14.4029 16.7479 14.0775 16.4225C13.7521 16.0971 13.7521 15.5694 14.0775 15.244L18.4882 10.8333H5.50008C5.03984 10.8333 4.66675 10.4602 4.66675 9.99992C4.66675 9.53968 5.03984 9.16659 5.50008 9.16659H18.4882L14.0775 4.75584C13.7521 4.4304 13.7521 3.90277 14.0775 3.57733Z" fill="#424F7B"/>
</g>
<defs>
<filter id="filter0_d_659_85" x="-1" y="0" width="28" height="28" filterUnits="userSpaceOnUse" color-interpolation-filters="sRGB">
<feFlood flood-opacity="0" result="BackgroundImageFix"/>
<feColorMatrix in="SourceAlpha" type="matrix" values="0 0 0 0 0 0 0 0 0 0 0 0 0 0 0 0 0 0 127 0" result="hardAlpha"/>
<feOffset dy="4"/>
<feGaussianBlur stdDeviation="2"/>
<feComposite in2="hardAlpha" operator="out"/>
<feColorMatrix type="matrix" values="0 0 0 0 0 0 0 0 0 0 0 0 0 0 0 0 0 0 0.25 0"/>
<feBlend mode="normal" in2="BackgroundImageFix" result="effect1_dropShadow_659_85"/>
<feBlend mode="normal" in="SourceGraphic" in2="effect1_dropShadow_659_85" result="shape"/>
</filter>
</defs>
</svg>
